<?xml version="1.0" encoding="utf-8"?>
<!-- Generator: Adobe Illustrator 27.5.0, SVG Export Plug-In . SVG Version: 6.00 Build 0)  -->
<svg version="1.1" xmlns="http://www.w3.org/2000/svg" xmlns:xlink="http://www.w3.org/1999/xlink" x="0px" y="0px"
	 viewBox="0 0 500 500" style="enable-background:new 0 0 500 500;" xml:space="preserve">
<g id="Background_Complete">
	<g>
		<rect y="382.398" style="fill:#EBEBEB;" width="500" height="0.25"/>
		<rect x="290.208" y="389.208" style="fill:#EBEBEB;" width="25.459" height="0.25"/>
		<rect x="395.111" y="394.619" style="fill:#EBEBEB;" width="60.333" height="0.25"/>
		<rect x="222.459" y="389.333" style="fill:#EBEBEB;" width="62.333" height="0.25"/>
		<rect x="169" y="396.814" style="fill:#EBEBEB;" width="13.041" height="0.25"/>
		<rect x="194.708" y="396.814" style="fill:#EBEBEB;" width="59.376" height="0.25"/>
		<rect x="52.459" y="392.592" style="fill:#EBEBEB;" width="38.454" height="0.25"/>
		<path style="fill:#EBEBEB;" d="M237.014,337.8H43.915c-3.147,0-5.708-2.561-5.708-5.708V60.66c0-3.147,2.561-5.708,5.708-5.708
			h193.099c3.146,0,5.707,2.561,5.707,5.708v271.432C242.721,335.239,240.16,337.8,237.014,337.8z M43.915,55.203
			c-3.01,0-5.458,2.448-5.458,5.458v271.432c0,3.01,2.448,5.458,5.458,5.458h193.099c3.009,0,5.457-2.448,5.457-5.458V60.66
			c0-3.009-2.448-5.458-5.457-5.458H43.915z"/>
		<path style="fill:#EBEBEB;" d="M453.31,337.8H260.212c-3.147,0-5.707-2.561-5.707-5.708V60.66c0-3.147,2.561-5.708,5.707-5.708
			H453.31c3.148,0,5.708,2.561,5.708,5.708v271.432C459.019,335.239,456.458,337.8,453.31,337.8z M260.212,55.203
			c-3.009,0-5.457,2.448-5.457,5.458v271.432c0,3.01,2.448,5.458,5.457,5.458H453.31c3.01,0,5.458-2.448,5.458-5.458V60.66
			c0-3.009-2.448-5.458-5.458-5.458H260.212z"/>
	</g>
	<g>
		<g>
			<g>
				<g>
					<rect x="88.662" y="82.769" style="fill:#F0F0F0;" width="179.294" height="62.447"/>
					
						<rect x="150.495" y="27.755" transform="matrix(-1.836970e-16 1 -1 -1.836970e-16 292.3003 -64.3164)" style="fill:#E6E6E6;" width="55.626" height="172.473"/>
					<rect x="147.248" y="83.47" style="fill:#F0F0F0;" width="3.41" height="61.045"/>
					
						<rect x="128.36" y="86.179" transform="matrix(-1 -1.224647e-16 1.224647e-16 -1 275.6078 227.984)" style="fill:#E0E0E0;" width="18.888" height="55.626"/>
					
						<rect x="186.936" y="86.179" transform="matrix(-1 -1.224647e-16 1.224647e-16 -1 392.7601 227.984)" style="fill:#E0E0E0;" width="18.888" height="55.626"/>
					
						<rect x="245.657" y="86.179" transform="matrix(-1 -1.224647e-16 1.224647e-16 -1 510.2021 227.984)" style="fill:#E0E0E0;" width="18.888" height="55.626"/>
					<rect x="205.834" y="83.47" style="fill:#F0F0F0;" width="3.41" height="61.045"/>
					
						<rect x="71.686" y="82.769" transform="matrix(-1 -1.224647e-16 1.224647e-16 -1 160.3474 227.9839)" style="fill:#E6E6E6;" width="16.976" height="62.447"/>
				</g>
				<g>
					<polygon style="fill:#EBEBEB;" points="135.537,141.805 104.099,141.805 111.482,94.368 142.92,94.368 					"/>
					<polygon style="fill:#F5F5F5;" points="196.983,141.805 165.545,141.805 171.001,94.368 202.439,94.368 					"/>
					<polygon style="fill:#E0E0E0;" points="181.957,141.805 153.36,141.805 165.393,98.655 193.99,98.655 					"/>
					<rect x="92.072" y="90.537" style="fill:#F5F5F5;" width="31.438" height="51.268"/>
					<rect x="226.211" y="90.537" style="fill:#F5F5F5;" width="31.438" height="51.268"/>
					<polygon style="fill:#E0E0E0;" points="235.388,141.805 211.026,141.805 219.495,98.655 243.857,98.655 					"/>
					<polygon style="fill:#F5F5F5;" points="223.264,141.805 209.244,141.805 209.244,101.791 236.656,101.791 					"/>
					<rect x="250.487" y="90.537" style="fill:#FAFAFA;" width="7.162" height="51.268"/>
					<path style="fill:#F0F0F0;" d="M114.453,137.974L114.453,137.974c-0.523,0-0.947-0.424-0.947-0.947V95.315
						c0-0.523,0.424-0.947,0.947-0.947l0,0c0.523,0,0.947,0.424,0.947,0.947v41.711C115.401,137.55,114.977,137.974,114.453,137.974
						z"/>
				</g>
			</g>
			<g>
				<g>
					<rect x="147.373" y="145.215" style="fill:#F0F0F0;" width="179.294" height="62.447"/>
					
						<rect x="209.206" y="90.202" transform="matrix(-1.836970e-16 1 -1 -1.836970e-16 413.4582 -60.5809)" style="fill:#E6E6E6;" width="55.626" height="172.473"/>
					<rect x="205.959" y="145.916" style="fill:#F0F0F0;" width="3.41" height="61.045"/>
					
						<rect x="187.071" y="148.626" transform="matrix(-1 -1.224647e-16 1.224647e-16 -1 393.0301 352.8774)" style="fill:#E0E0E0;" width="18.888" height="55.626"/>
					
						<rect x="245.647" y="148.626" transform="matrix(-1 -1.224647e-16 1.224647e-16 -1 510.1824 352.8774)" style="fill:#E0E0E0;" width="18.888" height="55.626"/>
					
						<rect x="304.368" y="148.626" transform="matrix(-1 -1.224647e-16 1.224647e-16 -1 627.6244 352.8774)" style="fill:#E0E0E0;" width="18.888" height="55.626"/>
					<rect x="264.546" y="145.916" style="fill:#F0F0F0;" width="3.41" height="61.045"/>
					
						<rect x="130.397" y="145.215" transform="matrix(-1 -1.224647e-16 1.224647e-16 -1 277.7697 352.8774)" style="fill:#E6E6E6;" width="16.976" height="62.447"/>
				</g>
				<g>
					<polygon style="fill:#EBEBEB;" points="252.71,204.252 221.271,204.252 228.655,156.814 260.093,156.814 					"/>
					<polygon style="fill:#F5F5F5;" points="314.409,204.252 282.971,204.252 288.427,156.814 319.865,156.814 					"/>
					<polygon style="fill:#E0E0E0;" points="299.382,204.252 270.785,204.252 282.818,161.102 311.415,161.102 					"/>
					<rect x="209.244" y="152.983" style="fill:#F5F5F5;" width="31.438" height="51.268"/>
					<rect x="167.749" y="152.983" style="fill:#F5F5F5;" width="31.438" height="51.268"/>
					<polygon style="fill:#E0E0E0;" points="176.927,204.252 152.564,204.252 161.034,161.102 185.396,161.102 					"/>
					<polygon style="fill:#F5F5F5;" points="164.803,204.252 150.783,204.252 150.783,164.237 178.194,164.237 					"/>
					<rect x="192.025" y="152.983" style="fill:#FAFAFA;" width="7.162" height="51.268"/>
					<path style="fill:#F0F0F0;" d="M231.626,200.421L231.626,200.421c-0.523,0-0.947-0.424-0.947-0.947v-41.711
						c0-0.523,0.424-0.947,0.947-0.947l0,0c0.523,0,0.947,0.424,0.947,0.947v41.711
						C232.573,199.996,232.149,200.421,231.626,200.421z"/>
				</g>
			</g>
			<path style="fill:#EBEBEB;" d="M280.758,118.216v12.735c0,7.845,6.419,14.264,14.264,14.264h0
				c7.845,0,14.264-6.419,14.264-14.264v-12.735H280.758z"/>
		</g>
		<g>
			<g>
				<rect x="102.121" y="287.382" style="fill:#E6E6E6;" width="89.152" height="10.389"/>
				<rect x="108.042" y="297.771" style="fill:#EBEBEB;" width="83.23" height="68.048"/>
				
					<rect x="191.272" y="297.771" transform="matrix(-1 -1.224647e-16 1.224647e-16 -1 583.2297 663.5896)" style="fill:#F5F5F5;" width="200.685" height="68.048"/>
				
					<rect x="108.042" y="297.771" transform="matrix(-1 -1.224647e-16 1.224647e-16 -1 499.9999 599.3852)" style="fill:#E0E0E0;" width="283.915" height="3.844"/>
				
					<rect x="191.272" y="287.382" transform="matrix(-1 -1.224647e-16 1.224647e-16 -1 589.1516 585.1522)" style="fill:#F0F0F0;" width="206.607" height="10.389"/>
				<polygon style="fill:#EBEBEB;" points="108.042,365.819 108.042,382.398 124.622,365.819 				"/>
				<polygon style="fill:#F5F5F5;" points="191.272,365.819 191.272,382.398 207.852,365.819 				"/>
				<polygon style="fill:#F5F5F5;" points="391.957,365.819 391.957,382.398 375.378,365.819 				"/>
				<polygon style="fill:#EBEBEB;" points="191.272,365.819 191.272,382.398 174.693,365.819 				"/>
				<polygon style="fill:#E0E0E0;" points="308.728,365.819 308.728,382.398 292.148,365.819 				"/>
				<polygon style="fill:#E0E0E0;" points="308.728,365.819 308.728,382.398 325.307,365.819 				"/>
			</g>
			<polygon style="fill:#E0E0E0;" points="245.091,250.526 239.04,284.86 212.873,284.86 211.935,287.382 238.595,287.382 
				254.886,287.382 299.163,287.382 305.658,250.526 			"/>
		</g>
		<g>
			<g>
				<rect x="355.494" y="102.602" style="fill:#E0E0E0;" width="70.765" height="117"/>
				<rect x="357.656" y="102.602" style="fill:#F0F0F0;" width="70.765" height="117"/>
			</g>
			<g>
				<polygon style="fill:#FAFAFA;" points="393.263,185.357 386.945,185.357 392.814,136.847 399.132,136.847 				"/>
				<polygon style="fill:#FAFAFA;" points="409.979,185.357 403.661,185.357 409.53,136.847 415.848,136.847 				"/>
				<polygon style="fill:#FAFAFA;" points="376.547,185.357 370.229,185.357 376.098,136.847 382.416,136.847 				"/>
			</g>
		</g>
	</g>
</g>
<g id="Background_Simple" style="display:none;">
	<g style="display:inline;">
		<path style="fill:#407BFF;" d="M82.892,184.43c4.456,57.01,46.887,111.301,94.397,144.868
			c122.802,87.5,249.83-84.232,221.042-140.753c-21.103-57.895-93.52-36.568-123.336-57.835
			C107.442,10.251,78.501,136.763,82.892,184.43z"/>
		<path style="opacity:0.9;fill:#FFFFFF;" d="M82.892,184.43c4.456,57.01,46.887,111.301,94.397,144.868
			c122.802,87.5,249.83-84.232,221.042-140.753c-21.103-57.895-93.52-36.568-123.336-57.835
			C107.442,10.251,78.501,136.763,82.892,184.43z"/>
	</g>
</g>
<g id="Shadow_1_">
	<ellipse id="_x3C_Path_x3E__38_" style="fill:#F5F5F5;" cx="250" cy="416.238" rx="193.889" ry="11.323"/>
</g>
<g id="Character_1">
	<g>
		<polygon style="fill:#B55B52;" points="148.581,406.887 156.01,406.887 156.328,389.682 148.899,389.682 		"/>
		<polygon style="fill:#B55B52;" points="103.976,406.887 111.405,406.887 114.717,389.682 107.288,389.682 		"/>
		<path style="fill:#263238;" d="M111.911,406.026h-8.346c-0.304,0-0.562,0.211-0.62,0.507l-1.306,6.603
			c-0.135,0.685,0.419,1.333,1.12,1.321c2.913-0.05,4.324-0.221,7.994-0.221c2.258,0,6.916,0.235,10.034,0.235
			c3.05,0,3.45-3.083,2.167-3.363c-5.755-1.252-7.953-2.979-9.826-4.626C112.791,406.186,112.356,406.026,111.911,406.026z"/>
		<path style="fill:#263238;" d="M155.94,406.026h-8.113c-0.304,0-0.562,0.211-0.62,0.507l-1.306,6.603
			c-0.135,0.685,0.4,1.333,1.101,1.322c2.925-0.05,7.15-0.221,10.829-0.221c4.301,0,4.751,0.235,9.795,0.235
			c3.05,0,3.821-3.083,2.537-3.363c-5.843-1.271-7.321-1.408-12.419-4.504C157.19,406.269,156.581,406.026,155.94,406.026z"/>
		<path style="fill:#B55B52;" d="M154.01,171.909l10.138-3.252c0,0,10.475,24.263,13.984,25.769
			c4.775,2.049,11.446,8.534,16.182,12.48c0.151,1.251-0.429,4.54-1.173,5.407c-8.559-2.039-19.212-6.9-22.707-10.134
			C162.465,194.806,154.01,171.909,154.01,171.909z"/>
		<path style="fill:#407BFF;" d="M151.639,166.33c-2.852,6.504,8.594,27.143,8.594,27.143l15.157-7.02c0,0-2.877-10.083-7.514-18.14
			C163.114,160.04,154.769,159.192,151.639,166.33z"/>
		<path style="opacity:0.2;" d="M165.898,181.83c-3.31-4.57-8.68-5.86-13.46-6.1c2.48,8.17,7.8,17.74,7.8,17.74l8.65-4.01
			C168.607,186.7,167.607,184.19,165.898,181.83z"/>
		<path style="fill:#B55B52;" d="M193.3,206.192l8.833,1.412l-2.287,9.326c0,0-4.459-1.758-8.514-5.296L193.3,206.192z"/>
		<polygon style="fill:#B55B52;" points="209.791,211.546 206.564,216.691 199.846,216.93 202.133,207.603 		"/>
		<g>
			<polygon style="opacity:0.2;" points="156.327,389.687 156.164,398.555 148.732,398.555 148.895,389.687 			"/>
			<polygon style="opacity:0.2;" points="107.285,389.687 114.718,389.687 113.007,398.555 105.574,398.555 			"/>
		</g>
		<path style="fill:#407BFF;" d="M161.346,162.114c0,0,8.221,23.301,2.014,67.308c-11.973,0-33.91,0-39.736,0
			c-0.423-6.1,2.68-38.95-3.908-67.691c0,0,6.778-1.367,13.261-1.68c5.071-0.245,12.418-0.407,16.892,0.001
			C155.767,160.589,161.346,162.114,161.346,162.114z"/>
		<g>
			<polygon style="opacity:0.2;" points="143.454,189.521 131.974,189.521 131.706,182.286 143.186,182.286 			"/>
			<polygon style="fill:#FFFFFF;" points="143.722,189.231 132.242,189.231 131.706,182.286 143.186,182.286 			"/>
			<polygon style="fill:#407BFF;" points="136.162,186.578 133.027,186.578 132.785,183.443 135.92,183.443 			"/>
			<polygon style="fill:#E0E0E0;" points="142.541,184.962 136.902,184.962 136.854,184.335 142.493,184.335 			"/>
			<polygon style="fill:#E0E0E0;" points="141.447,186.179 136.996,186.179 136.947,185.552 141.399,185.552 			"/>
			<polygon style="fill:#E0E0E0;" points="136.269,187.971 133.134,187.971 133.086,187.344 136.221,187.344 			"/>
			<polygon style="fill:#E0E0E0;" points="137.134,187.971 142.773,187.971 142.725,187.344 137.086,187.344 			"/>
			<path style="fill:#263238;" d="M137.563,183.578h-0.034c-0.334,0-0.625-0.27-0.651-0.604l-0.106-1.375
				c-0.026-0.334,0.224-0.604,0.558-0.604h0.034c0.334,0,0.625,0.271,0.651,0.604l0.106,1.375
				C138.146,183.308,137.896,183.578,137.563,183.578z"/>
		</g>
		<path style="opacity:0.2;" d="M128.522,168.827c0.778,4.73-0.437,16.047-4.621,29.124c-0.261-10.065-1.152-21.734-3.563-33.361
			l-0.001-0.056C122.949,164.266,127.78,164.393,128.522,168.827z"/>
		<path style="fill:#B55B52;" d="M134.798,144.253c1.199,5.435,1.893,12.171-1.821,15.798c0,0,2.319,5.513,12.418,5.513
			c9.228,0,4.473-5.512,4.473-5.512c-6.096-1.447-5.964-8.942-5.012-13.165L134.798,144.253z"/>
		<path style="fill:#263238;" d="M145.388,164.592l2.916,3.225c0.005,0.006,0.007,0.014,0.005,0.021l-0.742,2.258
			c-0.122,0.372-0.461,0.63-0.852,0.648l-1.956,0.094c-0.335,0.016-0.655-0.143-0.843-0.421l-1.59-2.338L145.388,164.592z"/>
		<path style="fill:#FFFFFF;" d="M145.388,164.592c-1.785,2.711-3.353,6.256-3.353,6.256s-12.111-4.283-11.68-10.82
			c0,0,2.672-1.308,3.792-2.174C134.147,157.853,134.677,161.973,145.388,164.592z"/>
		<path style="fill:#FFFFFF;" d="M145.388,164.592c2.348,2.616,3.765,5.799,3.765,5.799s4.478-3.877,2.6-10.34
			c0,0-1.634-0.677-3.263-1.03C148.49,159.022,149.344,163.193,145.388,164.592z"/>
		<path style="fill:#263238;" d="M146.484,169.624c0.298-0.121,5.263,25.223,5.97,31.433c1.447,8.27-2.448,17.4-2.452,17.379
			c-0.016-0.013-2.827-7.092-3.57-17.815c-0.571-10.561-0.82-24.916-1.786-30.975C145.028,169.638,146.104,169.632,146.484,169.624z
			"/>
		<path style="opacity:0.2;" d="M144.862,146.891c-0.568,2.474-0.845,6.074,0.259,8.923c-0.896-0.132-1.815-0.406-2.728-0.831
			c-3.457-1.612-5.202-4.147-7.049-7.909c-0.155-0.963-0.341-1.907-0.545-2.819L144.862,146.891z"/>
		<path style="fill:#263238;" d="M146.96,127.78l2.753,8.833C152.84,133.063,150.257,128.278,146.96,127.78z"/>
		<path style="fill:#B55B52;" d="M130.226,137.629c2.148,7.125,3.048,11.396,7.529,14.318c6.74,4.396,14.763-0.826,14.758-8.403
			c-0.004-6.82-3.516-17.325-11.18-18.68C133.783,123.53,128.078,130.505,130.226,137.629z"/>
		<path style="fill:#263238;" d="M133.116,143.015c2-1.306,2.833-8.04,1-10.34c6.417-0.3,9.583-2.467,9.75-3.633
			c2.25,1,7.875,1.375,7.167-1.458c-0.708-2.833-3.667-4.458-5-4.458c-2.208-2.333-7.75-4.292-11.667-1.125
			c-6.833-0.042-10.458,5.5-8.542,7.667c-4.042,2.458-3,7.795,0,9.252C123.991,141.667,131.907,147.821,133.116,143.015z"/>
		<path style="fill:#B55B52;" d="M128.889,146.288c1.405,1.44,3.324,2.108,4.953,2.115c2.449,0.012,2.973-2.351,1.706-4.338
			c-1.141-1.788-3.79-3.95-5.966-3.007C127.437,141.987,127.282,144.642,128.889,146.288z"/>
		<path style="fill:#263238;" d="M137.244,229.421c0,0,0.791,9.339,1.795,22.004c1.146,14.348,2.555,32.974,3.397,47.17
			c0,0.071,0.01,0.132,0.01,0.193c0.162,2.697,0.305,5.222,0.416,7.534c1.125,23.149,3.447,90.518,3.447,90.518h12.584
			c0,0,6.337-68.747,6.601-92.313c0.253-22.652-2.129-75.105-2.129-75.105H137.244z"/>
		<path style="fill:#407BFF;" d="M145.381,392.982c-0.058,0,0.101,4.112,0.101,4.112h14.506l0.497-4.619L145.381,392.982z"/>
		<path style="opacity:0.2;" d="M139.038,251.425c1.146,14.348,2.555,32.974,3.397,47.17c0,0.071,0.01,0.132,0.01,0.193
			c3.083-13.455,4.33-30.197,3.894-57.756L139.038,251.425z"/>
		<path style="fill:#263238;" d="M149.265,229.421c0,0-7.039,53.68-11.146,74.95c-4.498,23.292-21.691,92.466-21.691,92.466H102.82
			c0,0,10.736-67.293,13.063-90.355c2.525-25.029,7.742-77.062,7.742-77.062H149.265z"/>
		<path style="fill:#407BFF;" d="M102.733,393.292c-0.058,0-0.585,3.803-0.585,3.803h14.956l1.217-4.366L102.733,393.292z"/>
		<path style="fill:#263238;" d="M141.525,137.294c0.139,0.588,0.56,0.997,0.94,0.915c0.38-0.083,0.575-0.626,0.435-1.214
			c-0.139-0.588-0.56-0.997-0.94-0.915C141.581,136.163,141.386,136.706,141.525,137.294z"/>
		<path style="fill:#263238;" d="M148.091,135.866c0.139,0.588,0.56,0.998,0.94,0.915c0.38-0.083,0.575-0.626,0.435-1.214
			c-0.139-0.588-0.56-0.997-0.94-0.915C148.146,134.735,147.952,135.279,148.091,135.866z"/>
		<path style="fill:#A02724;" d="M146.073,136.613c0,0,2.124,3.104,3.966,4.424c-0.798,1.194-2.65,1.13-2.65,1.13L146.073,136.613z"
			/>
		<path style="fill:#263238;" d="M146.292,144.448c0.093-0.023,0.149-0.119,0.123-0.214c-0.025-0.094-0.122-0.152-0.215-0.129
			c-2.532,0.631-4.195-0.863-4.211-0.879c-0.074-0.066-0.185-0.063-0.247,0.009c-0.064,0.071-0.058,0.182,0.015,0.249
			C141.828,143.552,143.578,145.124,146.292,144.448z"/>
		<path style="fill:#263238;" d="M139.039,135.581c0.103-0.022,0.194-0.092,0.239-0.196c0.628-1.428,1.899-1.627,1.912-1.628
			c0.181-0.019,0.32-0.206,0.289-0.4c-0.032-0.193-0.213-0.327-0.404-0.3c-0.068,0.009-1.661,0.256-2.439,2.029
			c-0.078,0.177,0.003,0.387,0.18,0.469C138.889,135.59,138.967,135.597,139.039,135.581z"/>
		<path style="fill:#263238;" d="M150.482,132.87c0.049-0.014,0.096-0.039,0.136-0.076c0.141-0.129,0.149-0.352,0.017-0.498
			c-1.324-1.459-2.922-1.234-2.989-1.225c-0.187,0.021-0.318,0.208-0.285,0.402c0.034,0.193,0.214,0.325,0.404,0.297l0,0
			c0.053-0.008,1.301-0.169,2.358,0.995C150.217,132.869,150.358,132.906,150.482,132.87z"/>
		<path style="fill:#B55B52;" d="M115.239,170.171l10.034,4.143c0,0-7.384,21.297-7.924,24.686c4.054,1.5,8.5,7.529,13.902,11.467
			c-0.136,1.225-2.484,4.219-3.423,4.872c-8.059-3.911-20.414-9.323-21.035-13.95C105.377,190.838,115.239,170.171,115.239,170.171z
			"/>
		<path style="fill:#B55B52;" d="M128.815,210.033l8.364,0.03l-2.392,8.234c0,0-5.166-0.307-8.225-4.096L128.815,210.033z"/>
		<polygon style="fill:#B55B52;" points="142.189,211.653 139.652,218.997 134.787,218.297 137.179,210.063 		"/>
		<path style="fill:#407BFF;" d="M119.717,161.731c-7.004,1.022-14.457,25.379-14.457,25.379l16.133,6.107
			c0,0,5.052-9.353,8.047-17.955C132.579,166.248,127.229,160.634,119.717,161.731z"/>
		<path style="fill:#407BFF;" d="M114.4,407.323c0.566,0,1.092-0.096,1.421-0.378c0.261-0.224,0.376-0.538,0.341-0.931
			c-0.025-0.293-0.184-0.432-0.313-0.498c-0.823-0.421-3.192,1.05-3.459,1.219c-0.059,0.039-0.089,0.109-0.076,0.179
			c0.013,0.069,0.067,0.125,0.136,0.142C112.969,407.182,113.714,407.323,114.4,407.323z M115.466,405.787
			c0.092,0,0.17,0.014,0.229,0.044c0.048,0.025,0.104,0.07,0.116,0.206c0.025,0.28-0.048,0.489-0.223,0.639
			c-0.397,0.342-1.367,0.388-2.634,0.133C113.781,406.324,114.897,405.787,115.466,405.787z"/>
		<path style="fill:#407BFF;" d="M112.491,407.062c0.029,0,0.058-0.007,0.083-0.021c0.759-0.418,2.205-2.045,2.027-2.874
			c-0.032-0.15-0.149-0.41-0.571-0.461c-0.276-0.034-0.524,0.043-0.744,0.225c-0.846,0.705-0.971,2.85-0.975,2.94
			c-0.004,0.065,0.028,0.126,0.084,0.161C112.424,407.053,112.458,407.062,112.491,407.062z M113.916,404.05
			c0.026,0,0.052,0.003,0.08,0.005c0.229,0.027,0.252,0.133,0.261,0.177c0.105,0.489-0.812,1.72-1.562,2.3
			c0.071-0.627,0.278-1.876,0.82-2.329C113.64,404.101,113.771,404.05,113.916,404.05z"/>
		<path style="fill:#407BFF;" d="M159.062,407.325c0.738,0,1.417-0.114,1.794-0.456c0.24-0.217,0.344-0.506,0.308-0.856
			c-0.021-0.209-0.125-0.371-0.301-0.467c-0.913-0.507-3.863,1.01-4.197,1.185c-0.065,0.034-0.101,0.107-0.088,0.181
			c0.012,0.074,0.069,0.133,0.143,0.148C157.353,407.185,158.243,407.325,159.062,407.325z M160.369,405.787
			c0.137,0,0.249,0.021,0.33,0.065c0.071,0.04,0.106,0.096,0.115,0.188c0.024,0.238-0.041,0.423-0.199,0.566
			c-0.447,0.406-1.668,0.474-3.315,0.202C158.316,406.319,159.665,405.787,160.369,405.787z"/>
		<path style="fill:#407BFF;" d="M156.754,407.062c0.025,0,0.049-0.005,0.072-0.015c0.886-0.403,2.624-2.008,2.467-2.85
			c-0.036-0.197-0.183-0.443-0.667-0.491c-0.354-0.044-0.686,0.065-0.969,0.301c-0.926,0.777-1.077,2.777-1.083,2.862
			c-0.004,0.062,0.025,0.122,0.077,0.159C156.682,407.051,156.718,407.062,156.754,407.062z M158.493,404.05
			c0.034,0,0.07,0.003,0.106,0.005c0.318,0.033,0.341,0.157,0.348,0.198c0.094,0.504-1.082,1.766-1.984,2.316
			c0.081-0.584,0.316-1.781,0.924-2.29C158.071,404.126,158.27,404.05,158.493,404.05z"/>
	</g>
</g>
<g id="Report">
	<g>
		<rect x="282.484" y="139.723" style="fill:#407BFF;" width="4.667" height="1"/>
		<rect x="259.067" y="139.723" style="fill:#407BFF;" width="19.25" height="1"/>
		<path style="fill:#407BFF;" d="M319.366,318.63H198.457c-5.421,0-10.161-4.435-10.534-9.857l-10.705-155.694
			c-0.373-5.421,3.758-9.856,9.179-9.856h120.908c5.421,0,10.161,4.435,10.534,9.856l10.705,155.694
			C328.917,314.195,324.786,318.63,319.366,318.63z"/>
		<path style="fill:#FFFFFF;" d="M198.231,315.345c-3.623,0-6.774-2.948-7.023-6.571L180.503,153.08
			c-0.249-3.623,2.496-6.571,6.119-6.571h120.908c3.623,0,6.774,2.948,7.023,6.571l10.705,155.694
			c0.249,3.623-2.496,6.571-6.119,6.571H198.231z"/>
		<g style="opacity:0.2;">
			<g>
				<path style="fill:#407BFF;" d="M312.51,223.579H202.584l-4.139-60.188h109.927L312.51,223.579z M203.348,222.758h108.284
					l-4.025-58.546H199.323L203.348,222.758z"/>
				<polygon style="fill:#407BFF;" points="308.601,172.693 199.495,172.693 199.439,171.872 308.544,171.872 				"/>
				<polygon style="fill:#407BFF;" points="309.184,181.174 200.079,181.174 200.022,180.353 309.127,180.353 				"/>
				<polygon style="fill:#407BFF;" points="309.767,189.655 200.662,189.655 200.605,188.833 309.71,188.833 				"/>
				<polygon style="fill:#407BFF;" points="310.35,198.136 201.245,198.136 201.188,197.315 310.293,197.315 				"/>
				<polygon style="fill:#407BFF;" points="310.933,206.617 201.828,206.617 201.771,205.796 310.877,205.796 				"/>
				<polygon style="fill:#407BFF;" points="311.516,215.098 202.411,215.098 202.355,214.277 311.46,214.277 				"/>
			</g>
			<g>
				<polygon style="fill:#407BFF;" points="196.878,168.452 188.437,168.452 188.38,167.631 196.822,167.631 				"/>
				<polygon style="fill:#407BFF;" points="197.462,176.934 189.02,176.934 188.964,176.112 197.405,176.112 				"/>
				<polygon style="fill:#407BFF;" points="198.045,185.415 189.603,185.415 189.547,184.593 197.988,184.593 				"/>
				<polygon style="fill:#407BFF;" points="198.628,193.896 190.186,193.896 190.13,193.074 198.572,193.074 				"/>
				<polygon style="fill:#407BFF;" points="199.211,202.376 190.77,202.376 190.713,201.555 199.155,201.555 				"/>
				<polygon style="fill:#407BFF;" points="199.794,210.858 191.353,210.858 191.296,210.036 199.738,210.036 				"/>
				<polygon style="fill:#407BFF;" points="200.377,219.339 191.936,219.339 191.879,218.517 200.321,218.517 				"/>
			</g>
		</g>
		<g>
			<polygon style="fill:#E0E0E0;" points="203.197,223.524 202.736,222.813 215.753,214.943 219.776,210.913 228.658,203.077 
				237.847,206.514 247.164,190.965 260.01,194.342 276.497,183.462 284.748,186.942 306.379,176.153 306.786,176.893 
				284.828,187.845 276.631,184.389 260.205,195.229 247.585,191.911 238.235,207.516 228.878,204.016 220.361,211.529 
				216.252,215.63 			"/>
			<polygon style="fill:#407BFF;" points="203.283,223.451 202.649,222.885 215.223,208.601 218.807,200.458 230.911,207.434 
				236.341,194.155 246.852,184.501 260.233,192.044 276.041,176.98 287.317,183.687 305.591,166.098 306.183,166.707 
				287.478,184.711 276.201,178.002 260.404,193.055 247.012,185.507 236.982,194.72 231.346,208.604 219.218,201.616 
				215.896,209.123 			"/>
		</g>
		<g>
			<path style="fill:#E0E0E0;" d="M235.979,266.724l8.975-30.402c13.07,4.641,22.445,16.833,23.378,30.402
				c1.075,15.637-9.332,29.146-24.544,31.861L235.979,266.724z"/>
			<path style="fill:#407BFF;" d="M235.979,266.724l7.809,31.861c-1.832,0.327-3.701,0.492-5.584,0.492
				c-17.748,0-33.357-14.605-34.577-32.353c-1.22-17.748,12.38-32.353,30.128-32.353c3.774,0,7.564,0.66,11.2,1.951L235.979,266.724
				z"/>
		</g>
		<g>
			<polygon style="fill:#E0E0E0;" points="290.543,264.054 280.937,264.054 283.345,299.077 292.952,299.077 			"/>
			<polygon style="fill:#407BFF;" points="290.543,264.054 280.937,264.054 279.469,242.699 289.075,242.699 			"/>
			<polygon style="fill:#E0E0E0;" points="307.314,270.431 297.707,270.431 299.677,299.077 309.283,299.077 			"/>
			<polygon style="fill:#407BFF;" points="307.314,270.431 297.707,270.431 296.805,257.301 306.411,257.301 			"/>
		</g>
	</g>
</g>
<g id="Character_2">
	<g>
		<path style="fill:#FF8B7B;" d="M362.37,158.067c-0.961,4.904-1.921,13.89,1.51,17.162c0,0-3.475,6.489-11.818,9.981
			c-6.56-4.11-3.424-9.981-3.424-9.981c5.469-1.306,5.328-5.363,4.375-9.174L362.37,158.067z"/>
		<path style="fill:#263238;" d="M365.636,178.125c3.578-2.458,3.833-7.125,3.833-7.125s-13.042-3.333-20.083-1.333
			c-2.167,1.667-5.625,4.75-5.625,4.75s0.875,1.993,4.875,3.268C352.636,178.958,365.636,178.125,365.636,178.125z"/>
		<path style="fill:#FF8B7B;" d="M380.745,181.921c2.447,3.515,4.636,7.02,6.718,10.688c2.083,3.651,4.044,7.385,5.76,11.308
			c0.415,0.992,0.845,1.967,1.225,2.987l0.293,0.757l0.146,0.378l0.073,0.189l0.121,0.355c0.324,0.985,0.404,1.966,0.365,2.842
			c-0.108,1.759-0.638,3.113-1.197,4.296c-0.569,1.183-1.239,2.19-1.938,3.126c-2.831,3.698-6.062,6.421-9.658,8.897l-2.728-3.174
			c2.511-2.996,5.05-6.226,6.777-9.373c0.419-0.785,0.773-1.567,1.014-2.272c0.241-0.7,0.321-1.349,0.264-1.65
			c-0.025-0.148-0.062-0.204-0.088-0.187c-0.005-0.003,0,0.014-0.01-0.007l-0.077-0.165l-0.154-0.331l-0.307-0.661
			c-0.395-0.883-0.854-1.759-1.29-2.636c-0.89-1.757-1.828-3.505-2.822-5.235c-0.967-1.742-1.984-3.469-3.019-5.187
			c-2.09-3.407-4.262-6.867-6.427-10.149L380.745,181.921z"/>
		<path style="fill:#FF8B7B;" d="M381.375,223.725l-8.904-0.665l4.922,6.812c0,0,5.267-0.649,6.507-3.853L381.375,223.725z"/>
		<polygon style="fill:#FF8B7B;" points="366.695,226.923 371.125,232.402 378.715,229.608 372.471,223.06 		"/>
		<path style="fill:#407BFF;" d="M377.484,176.973l-5.661,7.714l0.402,9.535l9.615,8.716c0,0,4.93-3.508,9.222-7.06
			C385.683,183.583,380.823,177.958,377.484,176.973z"/>
		<path style="opacity:0.2;" d="M375.431,184.32l-3.03,10.06l3.23,2.93C375.191,190.27,375.431,184.32,375.431,184.32z"/>
		<path style="fill:#407BFF;" d="M333.699,182.878c-0.132,5.992,0.708,18.455,4.919,44.35h33.565
			c-0.563-13.661-1.229-22.219,5.3-50.254c0,0-6.383-1.396-13.604-1.744c-5.648-0.272-10.276-0.452-15.242,0.001
			c-3.282,0.299-6.785,0.831-9.462,1.286C336.059,177.046,333.768,179.717,333.699,182.878z"/>
		<path style="opacity:0.2;" d="M340.261,185.21l-5.98,9.73c0.31,3.46,0.77,7.61,1.42,12.57l4.893-2.899
			C342.594,189.892,340.261,185.21,340.261,185.21z"/>
		<path style="fill:#FF8B7B;" d="M341.237,187.808c-1.348,4.65-2.792,9.27-4.279,13.876c-1.46,4.615-2.99,9.206-4.553,13.783
			l-0.295,0.863l-0.483,1.115c-0.345,0.716-0.679,1.365-1.09,1.995c-0.793,1.267-1.73,2.402-2.736,3.415
			c-2.002,2.054-4.316,3.564-6.653,4.815c-4.775,2.382-9.627,3.738-14.794,4.253l-0.69-4.128c2.097-0.65,4.332-1.478,6.381-2.418
			c2.08-0.919,4.056-2.002,5.849-3.232c1.796-1.213,3.402-2.599,4.65-4.112c0.629-0.755,1.166-1.545,1.577-2.367
			c0.225-0.392,0.405-0.839,0.558-1.217l0.203-0.557l0.235-0.865c1.247-4.642,2.527-9.27,3.877-13.875
			c1.323-4.614,2.689-9.212,4.152-13.782L341.237,187.808z"/>
		<path style="fill:#407BFF;" d="M342.261,183.25c-1.415-3.383-5.851-5.566-5.851-5.566c-4.774,3.107-6.743,6.357-9.91,22.154
			c5.083,2.281,12.636,2.261,12.636,2.261l4.125-10.63C343.261,191.47,343.675,186.633,342.261,183.25z"/>
		<path style="fill:#FF8B7B;" d="M307.382,227.357l-8.346-0.13l5.316,6.51c0,0,5.22-0.958,6.268-4.23L307.382,227.357z"/>
		<polygon style="fill:#FF8B7B;" points="293.498,231.424 298.243,236.633 304.352,233.737 299.036,227.227 		"/>
		<path style="fill:#263238;" d="M344.912,147.845c-0.116,0.656-0.558,1.127-0.987,1.051c-0.429-0.076-0.683-0.67-0.566-1.326
			c0.116-0.656,0.558-1.127,0.987-1.051C344.775,146.595,345.028,147.189,344.912,147.845z"/>
		<path style="fill:#263238;" d="M344.529,146.589l-1.496-0.734C343.033,145.855,343.623,147.23,344.529,146.589z"/>
		<path style="fill:#263238;" d="M344.63,143.743c-0.091-0.033-0.171-0.101-0.217-0.195c-0.095-0.194-0.015-0.429,0.179-0.524
			c1.943-0.955,3.508-0.05,3.574-0.01c0.186,0.111,0.247,0.351,0.136,0.536c-0.11,0.186-0.35,0.246-0.536,0.137
			c-0.061-0.036-1.284-0.721-2.829,0.039C344.837,143.776,344.727,143.779,344.63,143.743z"/>
		<path style="fill:#FF5652;" d="M344.861,149.994c0,0-1.614,2.629-3.082,3.775c0.723,0.962,2.262,0.854,2.262,0.854
			L344.861,149.994z"/>
		<path style="fill:#FF8B7B;" d="M367.543,149.072c-1.923,7.974-2.567,11.39-7.371,14.806c-7.227,5.139-16.6,1.033-17.098-7.354
			c-0.448-7.549,2.772-19.321,11.231-21.131C362.638,133.609,369.466,141.098,367.543,149.072z"/>
		<path style="fill:#263238;" d="M351.057,148.133c-1.819,6.55,2.017,13.335,8.567,15.154c6.55,1.819,13.335-2.016,15.154-8.566
			c1.819-6.55-2.017-13.335-8.567-15.154C359.66,137.748,352.876,141.583,351.057,148.133z"/>
		<path style="fill:#263238;" d="M354.549,149.424c9.025-5.925,22.797-9.146,19.801-18.34c-2.417-7.417-13.492-7.762-22.038-4.294
			C340.677,131.511,345.558,155.326,354.549,149.424z"/>
		<path style="fill:#407BFF;" d="M365.983,136.278c-0.155,0-0.309-0.072-0.406-0.208l-9.473-13.194
			c-0.161-0.224-0.109-0.537,0.114-0.698c0.225-0.161,0.536-0.11,0.698,0.115l9.473,13.194c0.161,0.224,0.109,0.537-0.114,0.698
			C366.186,136.248,366.085,136.278,365.983,136.278z"/>
		<path style="fill:#407BFF;" d="M371.788,139.615c-0.102,0-0.203-0.03-0.292-0.094c-0.224-0.161-0.275-0.474-0.114-0.698
			l9.473-13.194c0.162-0.226,0.474-0.276,0.698-0.115c0.224,0.161,0.275,0.474,0.114,0.698l-9.473,13.194
			C372.097,139.542,371.943,139.615,371.788,139.615z"/>
		<path style="fill:#263238;" d="M364.503,133.992c-6.697,4.161-9.407,11.911-6.052,17.31c3.355,5.399,11.503,6.402,18.2,2.241
			c6.697-4.161,9.407-11.911,6.052-17.31C379.349,130.834,371.201,129.831,364.503,133.992z"/>
		<path style="fill:#FF8B7B;" d="M338.618,227.227c0,0,2.836,62.231,3.378,87.435c0.563,26.215,0.815,87.434,0.815,87.434h6.616
			c0,0,10.553-50.879,7.431-87.434c4.726-28.07,7.917-87.435,7.917-87.435H338.618z"/>
		<path style="fill:#FF8B7B;" d="M347.39,227.227c0,0,15.762,65.17,22.207,89.541c6.768,25.595,15.91,83.43,15.963,85.328h5.72
			c0,0,1.803-66.816-7.254-89.541c-0.037-28.465-11.843-85.328-11.843-85.328H347.39z"/>
		<path style="fill:#263238;" d="M387.509,400.499c4.877-0.812,4.867,1.568,5.279,4.13c0.237,1.473,0.142,3.126-0.65,4.518
			c-1.628,2.861,0,7.091-5.505,7.091c-5.505,0-6.048-1.198-4.652-3.757c1.396-2.559,2.054-5.262,2.617-8.219
			C384.879,402.779,385.341,400.86,387.509,400.499z"/>
		<path style="fill:#263238;" d="M392.49,405.316c0.12,3.299,0.437,10.922,0.437,10.922l-0.871-0.025c0,0-1.032-8.121-1.587-10.308
			L392.49,405.316z"/>
		<path style="fill:#FF8B7B;" d="M353.542,151.896c-0.641,1.575-1.95,2.707-3.247,3.228c-1.95,0.785-3.155-0.904-2.806-2.865
			c0.314-1.765,1.708-4.3,3.758-4.249C353.267,148.061,354.275,150.096,353.542,151.896z"/>
		<g style="opacity:0.2;">
			<path d="M341.931,311.57c0.02,1.08,0.05,2.11,0.07,3.09c0.09,4.05,0.17,8.93,0.24,14.29l15.16-3.6
				c-0.07-3.65-0.25-7.24-0.54-10.69c0.3-1.81,0.6-3.75,0.9-5.8L341.931,311.57z"/>
			<path d="M384.031,312.56c0-2.51-0.1-5.24-0.27-8.14l-16.63,2.84c0.92,3.58,1.75,6.8,2.47,9.51c0.44,1.66,0.89,3.45,1.34,5.36
				l15-3.56C385.361,316.34,384.731,314.32,384.031,312.56z"/>
		</g>
		<path style="fill:#263238;" d="M338.618,227.227l1.024,99.099l46.959-9.993c0.739-56.556-3.667-76.111-14.417-89.106H338.618z"/>
		<path style="opacity:0.2;" d="M370.269,251.692c0,0-9.142,7.598-20.34,10.117C361.595,260.925,367.516,257.639,370.269,251.692z"
			/>
		<g>
			<path style="fill:#407BFF;" d="M337.349,220.972c-0.129,1.048,0.578,5.773,0.634,6.372c0.056,0.6,0.223,5.173,0.421,6.211
				c0.198,1.038,38.571,0.434,37.801-1.153c-0.77-1.587-3.222-4.84-3.222-5.538c0-0.698-0.267-5.879-0.582-6.309
				C372.086,220.125,337.545,219.383,337.349,220.972z"/>
			<path style="opacity:0.2;fill:#FFFFFF;" d="M337.349,220.972c-0.129,1.048,0.578,5.773,0.634,6.372
				c0.056,0.6,0.223,5.173,0.421,6.211c0.198,1.038,38.571,0.434,37.801-1.153c-0.77-1.587-3.222-4.84-3.222-5.538
				c0-0.698-0.267-5.879-0.582-6.309C372.086,220.125,337.545,219.383,337.349,220.972z"/>
		</g>
		<path style="fill:#FF8B7B;" d="M342.778,399.686c-1.716,4.954-6.697,13.772-6.697,13.772l9.451-2.606l4.642-7.288l-1.027-1.929
			L342.778,399.686z"/>
		<path style="fill:#263238;" d="M350.584,401.094c0.42,0.842,0.571,1.779,0.555,2.702c-0.058,3.398-0.438,12.406-0.438,12.406
			h-0.795c0,0-0.025-6.066-0.421-8.304c-0.396-2.238-1.366,1.708-2.863,3.935c-1.497,2.227-4.446,4.243-9.622,4.369
			c-6.059,0.147-8.515-0.118-6.756-1.59c1.759-1.472,5.78-2.415,5.78-2.415s5.188,0.118,7.964-4.888
			c1.8-3.246,3.978-6.484,5.493-7.24C349.982,400.157,350.329,400.581,350.584,401.094z"/>
	</g>
</g>
</svg>
