<?xml version="1.0" encoding="utf-8"?>
<!-- Generator: Adobe Illustrator 27.5.0, SVG Export Plug-In . SVG Version: 6.00 Build 0)  -->
<svg version="1.1" id="_x2018_ëîé_x5F_1" xmlns="http://www.w3.org/2000/svg" xmlns:xlink="http://www.w3.org/1999/xlink"
	 x="0px" y="0px" viewBox="0 0 2936.186 2000" style="enable-background:new 0 0 2936.186 2000;" xml:space="preserve">
<g>
	<linearGradient id="SVGID_1_" gradientUnits="userSpaceOnUse" x1="1468.0928" y1="1055.0189" x2="1468.0928" y2="-9.094947e-13">
		<stop  offset="0.006" style="stop-color:#FFFFFF"/>
		<stop  offset="1" style="stop-color:#BFB5FA"/>
	</linearGradient>
	<rect style="opacity:0.4;fill:url(#SVGID_1_);" width="2936.186" height="1055.019"/>
	
		<linearGradient id="SVGID_00000000208811391423437620000010971937317186872221_" gradientUnits="userSpaceOnUse" x1="1043.4462" y1="1000" x2="1043.4462" y2="402.2634">
		<stop  offset="0" style="stop-color:#F2EFFE"/>
		<stop  offset="1" style="stop-color:#BFB5FA"/>
	</linearGradient>
	<path style="opacity:0.4;fill:url(#SVGID_00000000208811391423437620000010971937317186872221_);" d="M0,537.068l522.311-132.224
		c20.159-5.103,41.306-2.59,59.989,7.13l678.431,352.958c22.989,11.96,48.819,15.792,73.895,10.961l155.55-29.967
		c20.547-3.958,41.715-0.648,60.421,9.448l353.563,190.834h116.166l66.567,53.792H0V537.068z"/>
	
		<linearGradient id="SVGID_00000096052538483201438920000008456751396644046254_" gradientUnits="userSpaceOnUse" x1="740.7728" y1="1000" x2="740.7728" y2="615.5867">
		<stop  offset="0.006" style="stop-color:#FFFFFF"/>
		<stop  offset="1" style="stop-color:#BFB5FA"/>
	</linearGradient>
	<path style="opacity:0.4;fill:url(#SVGID_00000096052538483201438920000008456751396644046254_);" d="M0,699.209l345.348-80.015
		c30.794-7.135,63.097-3.621,91.636,9.969l461.528,219.76c14.056,6.693,29.848,8.837,45.179,6.133l113.032-19.93
		c15.364-2.709,31.192-0.444,45.179,6.466l249.916,123.457h82.469l47.258,34.951H0V699.209z"/>
	
		<linearGradient id="SVGID_00000140723333973126802150000013387056421630407309_" gradientUnits="userSpaceOnUse" x1="1468.0928" y1="1000" x2="1468.0928" y2="2000">
		<stop  offset="0.1146" style="stop-color:#E3DFFD"/>
		<stop  offset="0.6735" style="stop-color:#BFB5FA"/>
	</linearGradient>
	<rect y="1000" style="fill:url(#SVGID_00000140723333973126802150000013387056421630407309_);" width="2936.186" height="1000"/>
	<polygon style="opacity:0.4;fill:#FFFFFF;" points="0,1761.134 2086.892,1000 2142.94,1000 1019.058,2000 0,2000 	"/>
	<g>
		<g>
			<path style="fill:#2A2D49;" d="M865.543,1781.83c-0.16,6.756-0.358,13.338-0.327,19.455c0.023,3.645,2.602,6.794,6.178,7.502
				c9.054,1.803,18.497,1.666,27.787,1.506c30.153-0.517,60.313-1.042,90.474-1.56c3.104-0.053,6.574-0.243,8.286-3.348
				c1.088-1.971,0.936-4.375-0.099-6.376c-2.1-4.033-6.338-5.722-10.371-7.22c-19.577-7.266-40.828-14.571-55.52-28.616
				c-0.464-0.441-0.921-0.898-1.377-1.354c-3.097-3.142-5.874-6.612-8.248-10.485c-1.834-2.99-3.386-6.216-4.284-9.594
				c-0.312-1.164-0.548-2.344-0.685-3.546c-0.061-0.464-0.107-0.928-0.129-1.4l-10.652-0.472l-3.066-0.137l-41.155-1.818
				c2.807,10.416,3.416,22.643,3.378,34.923C865.725,1773.491,865.642,1777.691,865.543,1781.83z"/>
		</g>
		<g>
			<path style="fill:#2A2D49;" d="M653.138,1808.788c9.054,1.803,18.496,1.666,27.787,1.506c30.153-0.517,60.313-1.042,90.474-1.56
				c3.104-0.053,6.574-0.243,8.286-3.348c1.088-1.971,0.936-4.375-0.099-6.376c-2.1-4.033-6.338-5.722-10.37-7.22
				c-19.577-7.266-40.828-14.571-55.52-28.616c-0.464-0.441-0.921-0.898-1.377-1.354c-3.097-3.142-5.874-6.612-8.248-10.485
				c-1.834-2.99-3.386-6.216-4.284-9.594c-0.312-1.164-0.548-2.344-0.685-3.546c-0.061-0.464-0.107-0.928-0.129-1.4l-10.652-0.472
				l-3.066-0.137l-23.627-49.867c2.807,10.416-6.893,54.965-8.952,69.38C646.919,1795.984,649.561,1808.08,653.138,1808.788z"/>
		</g>
		<g>
			<path style="fill:#353757;" d="M677.073,1755.699c-27.759-5.915-27.759-14.707-27.759-14.707s35.066-168.049,44.705-224.445
				c12.468-72.953,58-319.194,58-319.194l220.121,26.128c0,0-6.966,207.491-12.048,276.441
				c-4.66,63.225-26.921,252.26-26.921,252.26s-0.959,6.394-26.937,5.775c-40.687-0.97-43.879-10.45-43.879-10.45
				s3.929-147.792,2.849-195.312c-1.06-46.601-11.409-181.169-11.409-181.169s-36.543,118.685-50.432,157.669
				c-20.438,57.369-89.202,226.683-89.202,226.683S707.535,1762.189,677.073,1755.699z"/>
		</g>
		<g>
			<path style="fill:#282F35;" d="M809.612,727.189c0,0-31.922,13.994-22.995,52.566c7.976,34.463,58.249,61.044,75.692,51.683
				C879.753,822.077,816.182,727.461,809.612,727.189z"/>
			<path style="fill:#F4CAB5;" d="M886.422,894.299c32.148-6.839,15.192-22.619,11.547-28.99c-0.191-0.342-0.391-0.711-0.584-1.104
				c-1.178-2.395-2.36-5.714-3.478-9.472c-1.068-3.532-2.081-7.464-2.986-11.335c-0.053-0.232-0.106-0.465-0.159-0.698
				c-0.714-3.052-1.374-6.047-1.94-8.801c-0.645-3.111-1.183-5.889-1.593-8.069c-0.545-2.915-0.853-4.732-0.853-4.732l-28.449-7.236
				l-3.278-0.828l-15.894-4.037c0.008,0.093,3.23,21.954,1.428,64.838C839.719,884.743,852.862,901.447,886.422,894.299z"/>
			<path style="fill:#F4CAB5;" d="M836.759,802.299c0,0,19.645,58.177,68.636,42.285c48.182-15.63,28.027-48.621,5.282-97.5
				C896.95,717.582,803.381,711.471,836.759,802.299z"/>
			<path style="fill:#282F35;" d="M826.765,802.009c1.909-0.129,3.814,0.34,5.714,0.145c5.701-0.584,11.199-3.297,14.998-7.602
				c4.75-5.381,6.702-13.428,3.909-20.04c-1.396-3.305-3.544-6.255-5.84-9.012c-0.039-0.047-0.078-0.094-0.116-0.14
				c-3.667-4.484-1.241-11.364,4.432-12.536c2.592-0.536,5.245-0.735,7.433-0.663c8.396,0.277,16.777,1.03,25.089,2.253
				c5.483,0.807,11.057,0.927,16.555,0.224c27.279-3.487,24.459-22.521,12.3-33.47c-7.006-6.309-24.862-10.265-38.197-5.842
				c0,0,15.892-6.3,12.329-14.076c-5.657-12.346-61.103,1.016-75.758,25.938c0,0-17.406,11.143-16.23,28.088
				C794.559,772.222,810.738,803.092,826.765,802.009z"/>
			<path style="fill:#282F35;" d="M903.925,753.757c0,0-22.33,3.192-14.349,15.821c7.981,12.629-1.379,31.521-7.674,36.199
				c-6.295,4.678-2.885,35.091-31.493,29.732c-28.608-5.359-55.577-27.64-60.094-43.784c-4.517-16.144-7.912-25.773-4.008-35.884
				c3.904-10.111,95.341-20.067,95.341-20.067L903.925,753.757z"/>
			<g>
				<g>
					
						<ellipse transform="matrix(0.994 -0.1097 0.1097 0.994 -81.3676 102.8373)" style="fill:#F4CAB5;" cx="893.66" cy="790.697" rx="16.61" ry="13.196"/>
				</g>
				<g>
					<g>
						<path style="fill:#EF9778;" d="M879.919,799.409c3.764,3.369,8.234,5.886,13.446,5.256c5.767-0.697,11.825-3.341,15.926-7.47
							c0.464-0.468-0.23-1.222-0.696-0.753c-3.708,3.733-8.72,5.877-13.829,6.934c-5.462,1.131-10.057-1.05-14.094-4.663
							C880.184,798.276,879.427,798.969,879.919,799.409L879.919,799.409z"/>
					</g>
				</g>
				<g>
					<path style="fill:#EF9778;" d="M894.086,787.025c1.521,0.078,3.109,0.379,3.691,1.983c0.18,0.496,0.126,1.103,0.313,1.623
						c0.501,1.399,1.534,2.442,2.842,3.108c0.646,0.329,1.252-0.633,0.599-0.964c-1.463-0.744-2.331-1.885-2.586-3.523
						c-0.104-0.672-0.042-1.35-0.462-1.929c-0.874-1.203-3.03-1.364-4.367-1.432C893.386,785.853,893.354,786.988,894.086,787.025
						L894.086,787.025z"/>
				</g>
				<g>
					<path style="fill:#EF9778;" d="M890.033,778.616c1.433-0.427,2.919-0.549,4.398-0.308c0.711,0.116,1.043-0.971,0.321-1.089
						c-1.678-0.274-3.345-0.195-4.978,0.292C889.076,777.719,889.331,778.825,890.033,778.616L890.033,778.616z"/>
				</g>
			</g>
			<g>
				<path style="fill:#EF9778;" d="M891.673,831.689c-1.44,6.421-0.671,14.072,0.807,20.435c0.229,0.986,1.746,0.568,1.517-0.418
					c-1.385-5.958-2.167-13.539-0.807-19.599C893.411,831.121,891.895,830.7,891.673,831.689L891.673,831.689z"/>
			</g>
		</g>
		<path style="fill:#494E7C;" d="M865.328,864.72c-24.473,0-73.213,4.614-95.234,27.264c-31.189,32.08,9.438,178.865-41.223,355.805
			c0,0,109.802,52.125,249.478,5.452c0,0-5.934-241.715-13.663-287.015C956.958,920.926,940.18,864.72,865.328,864.72z"/>
		<g>
			<path style="fill:#FFFFFF;" d="M833.415,1326.002c15.007,14.167,17.717,34.888,19.643,54.404c0.099,0.998,1.672,1.008,1.573,0
				c-1.969-19.954-4.777-41.048-20.104-55.517C833.792,1324.195,832.677,1325.305,833.415,1326.002L833.415,1326.002z"/>
		</g>
		<g>
			<path style="fill:#FFFFFF;" d="M939.897,1303.208c13.976-7.114,24.406-18.999,29.723-33.746c0.344-0.954-1.176-1.365-1.517-0.418
				c-5.177,14.361-15.401,25.884-29,32.806C938.201,1302.309,938.996,1303.667,939.897,1303.208L939.897,1303.208z"/>
		</g>
		<g>
			<path style="fill:#FFFFFF;" d="M940.57,1300.963c0.44,55.818-4.063,111.936-7.507,167.607
				c-4.396,71.07-9.263,142.178-16.348,213.038c-2.199,21.993-3.427,45.046-8.963,66.533c-0.253,0.981,1.264,1.399,1.517,0.418
				c4.609-17.891,5.883-36.965,7.819-55.272c3.421-32.351,6.13-64.778,8.668-97.208c5.675-72.541,10.413-145.18,13.908-217.86
				c1.236-25.707,2.682-51.509,2.479-77.256C942.135,1299.952,940.562,1299.949,940.57,1300.963L940.57,1300.963z"/>
		</g>
		<path style="fill:#494E7C;" d="M889.236,866.92c0,0,72.665,4.767,97.922,63.443c24.885,57.812,59.092,176.797,59.092,176.797
			l54.286,140.916l-74.326,12.244l-72.029-126.736L889.236,866.92z"/>
		<path style="fill:#494E7C;" d="M770.094,891.984c-45.06,33.232-95.503,133.64-112.621,186.863
			c-11.228,34.91-44.433,157.59-44.433,157.59l73.235,16.069c0,0,33.869-114.332,50.473-150.628
			c13.898-30.381,64.528-117.025,64.528-117.025S794.003,874.351,770.094,891.984z"/>
		<g>
			<path style="fill:#F4CAB5;" d="M675.064,1294.258c-2.265-0.126-5.512-5.851-7.5-12.407c-0.667-1.9-1.334-2.995-2.026-3.473
				c-2.227,15.792-6.631,38.405-10.973,37.813c-3.939-0.541-3.272-14.697-1.774-28.413l-0.667,0.038
				c-3.523,16.572-9.626,38.77-14.484,37.788c-5.285-1.07-2.429-20.951,0.642-37.121l-0.705,0.038
				c-0.013,0.088-0.038,0.189-0.05,0.289c-3.095,15.352-9.274,38.505-14.446,37.461c-0.415-0.076-0.768-0.289-1.082-0.604
				c-3.612-3.674-0.868-22.197,1.812-36.479c-0.038-5.247-1.422-4.769-2.554-3.511c-0.478,0.73-0.956,1.422-1.435,2.101
				c0,0.013,0,0.013,0,0.013c-4.782,6.795-9.614,11.325-12.193,10.533c-5.877-1.775,5.801-21.128,10.746-37.511
				c1.296-4.304,3.146-7.764,5.235-11.438v-0.013c2.089-3.674,4.404-7.55,6.631-12.709c1.12-2.592,42.821,2.19,43.853,4.215
				c1.095,2.139,2.24,4.719,2.869,8.884c0.277,1.762,0.491,4.492,0.629,7.751C678.21,1271.243,677.58,1294.396,675.064,1294.258z"/>
			<g>
				<path style="fill:#494E7C;" d="M687.245,1250.216c-0.164,0.818-0.491,1.573-0.969,2.29c-0.264,0.365-0.566,0.73-0.893,1.057
					c-1.686,1.686-4.366,3.02-7.789,3.939c-1.409,0.403-2.945,0.717-4.593,0.956c-0.692,0.101-1.384,0.189-2.114,0.277
					c-5.512,0.617-12.068,0.466-19.064-0.516c-1.422-0.189-2.869-0.44-4.329-0.717c-0.013,0-0.013,0-0.025,0
					c-5.448-1.044-10.545-2.454-15.062-4.127c0,0,0,0,0-0.013c-1.044-0.39-2.051-0.793-3.033-1.208
					c-2.089-0.881-4.014-1.825-5.763-2.781v-0.013c-3.612-2.013-6.468-4.19-8.305-6.405c-1.435-1.737-2.278-3.473-2.353-5.172
					c0-0.012,0-0.012,0-0.012c-0.025-0.44,0-0.893,0.088-1.334c0.516-2.743,3.058-4.895,7.022-6.392
					c1.032-0.403,2.164-0.73,3.372-1.019c2.907-0.705,6.304-1.133,10.054-1.271c0.768-0.025,1.548-0.05,2.353-0.05
					c1.372,0,2.793,0.038,4.253,0.113c4.014,0.201,8.28,0.705,12.672,1.535c4.392,0.818,8.544,1.9,12.357,3.146
					c0.076,0.038,0.126,0.05,0.189,0.063c1.07,0.352,2.127,0.73,3.146,1.12c1.082,0.415,2.139,0.831,3.146,1.284
					c5.524,2.366,9.903,5.134,12.621,7.965C686.577,1245.372,687.685,1247.863,687.245,1250.216z"/>
			</g>
		</g>
		<g>
			<path style="fill:#FFFFFF;" d="M977.778,1176.356l-22.465-52.001c-1.149-2.637-2.055-5.408-2.711-8.261l-28.279-123.31l1.23-0.27
				l28.279,123.31c0.635,2.758,1.521,5.462,2.63,8.045l22.465,52.001L977.778,1176.356z"/>
		</g>
		<g>
			<polygon style="fill:#FFFFFF;" points="754.732,1079.844 750.378,992.676 751.636,992.622 755.989,1079.79 			"/>
		</g>
		<g>
			<path style="fill:#CE5242;" d="M1164.225,1332.667l-21.279-5.914c-1.2-0.471-2.457-0.827-3.76-1.045l-0.01-0.003l-0.002,0
				c-1.282-0.214-2.607-0.3-3.96-0.241l-189.942,8.231c-10.128,0.439-18.112,8.777-18.112,18.914V1472.6
				c0,9.571,7.071,17.34,16.089,18.702l-0.016,0.232l21.148,5.889l10.354-8.536l163.094-15.549
				c9.715-0.926,17.135-9.087,17.135-18.846v-110.113c0-1.29-0.136-2.547-0.381-3.763L1164.225,1332.667z"/>
			<path style="fill:#F2735A;" d="M1160.565,1479.755l-189.942,18.109c-11.115,1.06-20.729-7.681-20.729-18.846v-119.991
				c0-10.137,7.985-18.475,18.112-18.914l189.942-8.231c10.767-0.467,19.751,8.137,19.751,18.914v110.113
				C1177.7,1470.668,1170.28,1478.828,1160.565,1479.755z"/>
		</g>
		<g>
			<path style="fill:#26283F;" d="M1015.035,1343.757c-0.663,0-1.332-0.149-1.961-0.46c-2.177-1.082-3.069-3.732-1.981-5.909
				l11.682-23.513c4.137-8.356,12.513-13.778,21.843-14.17l37.547-1.555c0.392-0.027,0.777-0.027,1.17-0.027
				c12.493,0,23.797,8.085,27.751,19.997l5.435,16.347c0.771,2.312-0.48,4.8-2.785,5.571c-2.346,0.744-4.807-0.487-5.571-2.785
				l-5.435-16.347c-2.853-8.586-11.006-14.075-20.207-13.967l-37.541,1.555c-6.118,0.257-11.608,3.826-14.319,9.302l-11.689,23.513
				C1018.212,1342.851,1016.65,1343.757,1015.035,1343.757z"/>
		</g>
		<g>
			<g>
				<path style="fill:#353757;" d="M1100.536,1248.076c0.111,0.818,0.041,1.647-0.184,2.481c-0.129,0.428-0.294,0.866-0.503,1.29
					c-1.485,3.014-5.065,6.01-10.136,8.626c-0.614,0.328-1.247,0.635-1.904,0.949c-5.023,2.367-11.277,4.346-18.208,5.677
					c-1.412,0.276-2.862,0.51-4.331,0.724c-0.012,0.003-0.012,0.003-0.024,0.007c-5.493,0.774-10.776,1.084-15.59,0.963
					c0,0,0,0-0.003-0.012c-1.106-0.031-2.191-0.081-3.259-0.162c-6.916-0.489-12.637-1.937-16.287-4.159
					c-1.921-1.175-3.271-2.55-3.894-4.127c-0.003-0.012-0.003-0.012-0.003-0.012c-0.167-0.411-0.288-0.847-0.346-1.288
					c-0.404-2.761,1.305-5.628,4.575-8.33c0.848-0.707,1.81-1.38,2.863-2.052c3.041-1.932,6.891-3.724,11.311-5.257
					c1.301-0.441,2.657-0.871,4.06-1.276c3.86-1.102,8.064-2,12.483-2.644c4.419-0.644,8.705-0.964,12.716-1.011
					c0.079,0.004,0.131,0.002,0.195-0.002c1.132-0.015,2.247,0,3.341,0.035c7.486,0.238,13.777,1.528,17.91,3.655
					C1098.335,1243.699,1100.188,1245.704,1100.536,1248.076z"/>
			</g>
			<g>
				<g>
					<path style="fill:#F4CAB5;" d="M1103.082,1301.017c0.123,2.409,0.019,4.802-0.277,7.158
						c-1.785,14.449-10.823,27.668-21.114,38.362c-0.79,0.821-1.933,1.688-2.943,1.16c-0.427-0.221-0.708-0.665-0.921-1.102
						c-2.05-4.027-1.315-8.934,0.321-13.14c1.636-4.205,4.084-8.075,5.532-12.346c0.532-1.559,0.91-3.154,1.194-4.761
						c0.052-0.236,0.1-0.485,0.136-0.73c-0.138,0.208-0.276,0.417-0.417,0.613c-5.392,8.022-12.596,15.125-20.148,21.163
						c-0.963,0.765-2.324,1.549-3.329,0.85c-0.439-0.309-0.676-0.831-0.854-1.329c-1.626-4.615-0.141-9.784,2.201-14.082
						c0.969-1.772,2.077-3.466,3.205-5.139c-3.827,3.235-7.899,6.2-12.037,8.882c-1.029,0.666-2.459,1.3-3.387,0.5
						c-0.409-0.343-0.586-0.882-0.719-1.406c-1.154-4.747,0.837-9.743,3.604-13.781c2.703-3.941,6.156-7.346,8.728-11.382
						c0.064-0.096,0.117-0.189,0.182-0.286c0.126-0.205,0.236-0.418,0.362-0.624c-0.297,0.292-0.598,0.572-0.914,0.843
						c-4.749,4.472-10.028,8.452-15.432,11.932c-1.029,0.666-2.456,1.312-3.384,0.513c-0.413-0.355-0.586-0.882-0.707-1.41
						c-1.166-4.744,0.821-9.752,3.592-13.777c2.282-3.34,5.094-6.28,7.461-9.552c0.077-0.1,0.141-0.196,0.218-0.296
						c-0.273-5.149-1.673-10.219-4.149-14.741c-0.832-1.532-1.778-3.005-2.688-4.489c-0.814-1.328-1.604-2.662-2.256-4.061
						c-2.423-5.177-2.76-11.21-1.247-16.7c0.432-1.544,1.008-3.037,1.721-4.464c1.301-0.441,2.657-0.871,4.06-1.276
						c3.86-1.102,8.064-2,12.483-2.644c4.419-0.644,8.705-0.964,12.716-1.011c0.079,0.004,0.131,0.002,0.195-0.002
						c1.132-0.015,2.247,0,3.341,0.035c2.3,2.533,4.237,5.638,6.021,8.994c0.145,0.286,0.306,0.581,0.451,0.867
						c1.632,3.137,3.16,6.461,4.746,9.715c0.366,0.799,0.733,1.598,1.087,2.401c2.811,6.192,5.438,12.475,7.862,18.827
						C1100.246,1286.302,1102.706,1293.532,1103.082,1301.017z"/>
				</g>
				<g>
					<g>
						<path style="fill:#EF9778;" d="M1067.036,1318.005c2.213-3.326,4.54-6.604,6.622-10.014c1.498-2.452,2.595-4.973,2.496-7.895
							c-0.023-0.669-1.067-0.713-1.044-0.041c0.114,3.355-1.5,6.139-3.283,8.86c-1.874,2.86-3.787,5.695-5.681,8.542
							C1065.774,1318.018,1066.663,1318.566,1067.036,1318.005L1067.036,1318.005z"/>
					</g>
				</g>
				<g>
					<g>
						<path style="fill:#EF9778;" d="M1062.09,1300.383c3.755-3.212,5.713-7.976,5.269-12.901c-0.06-0.662-1.104-0.709-1.044-0.041
							c0.422,4.68-1.37,9.127-4.944,12.184C1060.861,1300.062,1061.58,1300.82,1062.09,1300.383L1062.09,1300.383z"/>
					</g>
				</g>
				<g>
					<g>
						<path style="fill:#EF9778;" d="M1085.466,1316.013c1.491-3.636,3.322-7.085,5.484-10.365c0.37-0.562-0.519-1.11-0.89-0.548
							c-2.211,3.354-4.07,6.892-5.594,10.609C1084.211,1316.331,1085.213,1316.63,1085.466,1316.013L1085.466,1316.013z"/>
					</g>
				</g>
			</g>
		</g>
		<g>
			<polygon style="fill:#FFFFFF;" points="949.932,1412.051 949.851,1410.807 1177.656,1395.461 1177.737,1396.705 			"/>
		</g>
		<rect x="984.502" y="1401.536" style="fill:#FFFFFF;" width="7.969" height="13.371"/>
		<rect x="1137.39" y="1392.517" style="fill:#FFFFFF;" width="7.97" height="13.371"/>
	</g>
	
		<linearGradient id="SVGID_00000174601080262139867210000004367666821896968624_" gradientUnits="userSpaceOnUse" x1="578.747" y1="1801.2855" x2="578.747" y2="2000">
		<stop  offset="0.3265" style="stop-color:#BFB5FA"/>
		<stop  offset="1" style="stop-color:#CFC8FB"/>
	</linearGradient>
	<polygon style="fill:url(#SVGID_00000174601080262139867210000004367666821896968624_);" points="167.84,2000 653.138,1808.788 
		779.684,1805.386 603.389,1913.333 865.215,1801.286 989.654,1808.734 801.277,2000 	"/>
	<polygon style="fill:#8884E8;" points="1572.477,2000 2014.721,1625.1 2291.123,1679.567 2632.019,1298.264 2936.186,1339.354 
		2936.186,2000 	"/>
	
		<linearGradient id="SVGID_00000105412837027823848680000010833351125536433820_" gradientUnits="userSpaceOnUse" x1="2566.3674" y1="1000" x2="2566.3674" y2="790.6969">
		<stop  offset="0" style="stop-color:#F2EFFE"/>
		<stop  offset="1" style="stop-color:#BFB5FA"/>
	</linearGradient>
	<polygon style="opacity:0.4;fill:url(#SVGID_00000105412837027823848680000010833351125536433820_);" points="2196.549,999.51 
		2372.773,939.182 2514.444,969.346 2732.132,841.907 2804.695,896.023 2936.186,790.697 2936.186,1000 	"/>
</g>
</svg>
